<svg width="24" height="24" viewBox="0 0 24 24" fill="none" xmlns="http://www.w3.org/2000/svg">
  <rect width="24" height="24" rx="5" fill="#2F74C0"/>
  <path d="M5.2 7.4h7.3v2.1H10.8v7.1H8.1V9.5H5.2V7.4Z" fill="#F8FAFC"/>
  <path d="M12.9 16.7c.8.8 1.8 1.2 3.2 1.2 1.9 0 3.4-.9 3.4-2.6 0-1.3-.8-2-2.4-2.4l-1.1-.3c-.8-.2-1-.4-1-.7 0-.4.4-.7 1.1-.7.6 0 1.3.2 1.9.7l1.3-1.6c-.8-.8-1.9-1.2-3.1-1.2-1.8 0-3.2 1-3.2 2.6 0 1.3.8 2 2.4 2.4l1.1.3c.8.2 1.1.4 1.1.8 0 .4-.4.7-1.2.7-.8 0-1.6-.3-2.2-.9l-1.3 1.5Z" fill="#F8FAFC"/>
</svg>
